<svg width="1200" height="360" viewBox="0 0 1200 360" fill="none" xmlns="http://www.w3.org/2000/svg" role="img" aria-labelledby="title desc">
  <title id="title">Umut Korkmaz - Lead Software Engineer</title>
  <desc id="desc">A professional GitHub profile header for enterprise platforms, AI workflows, scalable APIs, and mobile products.</desc>

  <defs>
    <linearGradient id="bg" x1="0" y1="0" x2="1200" y2="360" gradientUnits="userSpaceOnUse">
      <stop stop-color="#11100F"/>
      <stop offset="0.58" stop-color="#141312"/>
      <stop offset="1" stop-color="#10181C"/>
    </linearGradient>
    <radialGradient id="blueGlow" cx="0" cy="0" r="1" gradientUnits="userSpaceOnUse" gradientTransform="translate(905 125) rotate(35) scale(360 220)">
      <stop stop-color="#3FB7FF" stop-opacity="0.22"/>
      <stop offset="0.48" stop-color="#3FB7FF" stop-opacity="0.07"/>
      <stop offset="1" stop-color="#3FB7FF" stop-opacity="0"/>
    </radialGradient>
    <radialGradient id="amberGlow" cx="0" cy="0" r="1" gradientUnits="userSpaceOnUse" gradientTransform="translate(325 350) rotate(-20) scale(470 180)">
      <stop stop-color="#F0C36A" stop-opacity="0.14"/>
      <stop offset="1" stop-color="#F0C36A" stop-opacity="0"/>
    </radialGradient>
  </defs>

  <rect width="1200" height="360" rx="28" fill="url(#bg)"/>
  <rect width="1200" height="360" rx="28" fill="url(#blueGlow)"/>
  <rect width="1200" height="360" rx="28" fill="url(#amberGlow)"/>
  <rect x="1" y="1" width="1198" height="358" rx="27" stroke="#2D2A27"/>

  <g opacity="0.28">
    <path d="M72 70 H650" stroke="#35322F"/>
    <path d="M72 118 H600" stroke="#35322F"/>
    <path d="M72 166 H620" stroke="#35322F"/>
    <path d="M72 214 H560" stroke="#35322F"/>
    <path d="M72 262 H640" stroke="#35322F"/>
  </g>

  <g opacity="0.42">
    <circle cx="92" cy="70" r="4" fill="#3FB7FF"/>
    <circle cx="92" cy="118" r="4" fill="#64D6A1"/>
    <circle cx="92" cy="166" r="4" fill="#F0C36A"/>
    <circle cx="92" cy="214" r="4" fill="#3FB7FF"/>
    <circle cx="92" cy="262" r="4" fill="#64D6A1"/>
  </g>

  <g font-family="-apple-system,BlinkMacSystemFont,Segoe UI,Arial,sans-serif">
    <rect x="124" y="58" width="178" height="30" rx="15" fill="#1A1A18" stroke="#34302B"/>
    <text x="144" y="78" fill="#B8B2A9" font-size="13" font-weight="650">GITHUB PROFILE</text>

    <text x="124" y="137" fill="#F7F3EA" font-size="54" font-weight="750">Umut Korkmaz</text>
    <text x="124" y="176" fill="#C7C0B6" font-size="22" font-weight="600">Lead Software Engineer</text>
    <text x="124" y="219" fill="#F7F3EA" font-size="28" font-weight="650">Enterprise platforms, scalable APIs,</text>
    <text x="124" y="253" fill="#F7F3EA" font-size="28" font-weight="650">AI workflows, and mobile products.</text>
    <text x="124" y="289" fill="#B8B2A9" font-size="18">React / Next.js / React Native / .NET / Node.js / Python</text>
  </g>

  <g font-family="-apple-system,BlinkMacSystemFont,Segoe UI,Arial,sans-serif" font-size="14" font-weight="700">
    <rect x="124" y="312" width="126" height="30" rx="15" fill="#1B262B" stroke="#315365"/>
    <text x="143" y="332" fill="#BFEAFF">Istanbul UTC+3</text>
    <rect x="266" y="312" width="108" height="30" rx="15" fill="#18251F" stroke="#335B49"/>
    <text x="286" y="332" fill="#C7F4DB">10+ years</text>
    <rect x="390" y="312" width="154" height="30" rx="15" fill="#282217" stroke="#665225"/>
    <text x="411" y="332" fill="#FFE1A0">Platform delivery</text>
  </g>

  <g transform="translate(752 58)" font-family="-apple-system,BlinkMacSystemFont,Segoe UI,Arial,sans-serif">
    <rect x="0" y="0" width="368" height="246" rx="24" fill="#151514" stroke="#2E2B28"/>
    <rect x="20" y="20" width="328" height="206" rx="18" fill="#11100F" stroke="#25231F"/>

    <text x="42" y="55" fill="#F7F3EA" font-size="18" font-weight="700">systems map</text>
    <text x="42" y="80" fill="#8F8980" font-size="13">platform modernization / AI integration</text>

    <path d="M82 124 H278" stroke="#34302B" stroke-width="2"/>
    <path d="M118 124 V174" stroke="#34302B" stroke-width="2"/>
    <path d="M242 124 V174" stroke="#34302B" stroke-width="2"/>
    <circle cx="82" cy="124" r="5" fill="#3FB7FF"/>
    <circle cx="180" cy="124" r="5" fill="#64D6A1"/>
    <circle cx="278" cy="124" r="5" fill="#F0C36A"/>
    <circle cx="118" cy="174" r="5" fill="#9AD7FF"/>
    <circle cx="242" cy="174" r="5" fill="#E9C9F5"/>

    <g font-size="13" font-weight="700">
      <rect x="45" y="101" width="74" height="32" rx="10" fill="#1B262B" stroke="#315365"/>
      <text x="66" y="122" fill="#BFEAFF">API</text>
      <rect x="143" y="101" width="74" height="32" rx="10" fill="#18251F" stroke="#335B49"/>
      <text x="162" y="122" fill="#C7F4DB">AI</text>
      <rect x="241" y="101" width="74" height="32" rx="10" fill="#282217" stroke="#665225"/>
      <text x="257" y="122" fill="#FFE1A0">Data</text>
      <rect x="77" y="166" width="82" height="32" rx="10" fill="#1A2023" stroke="#30404A"/>
      <text x="94" y="187" fill="#D5EDF8">Mobile</text>
      <rect x="201" y="166" width="82" height="32" rx="10" fill="#211B22" stroke="#4B394E"/>
      <text x="219" y="187" fill="#E9C9F5">Cloud</text>
    </g>
  </g>
</svg>
